<?xml version="1.0" standalone="no"?>
<!DOCTYPE svg PUBLIC "-//W3C//DTD SVG 20010904//EN"
 "http://www.w3.org/TR/2001/REC-SVG-20010904/DTD/svg10.dtd">
<svg version="1.0" xmlns="http://www.w3.org/2000/svg"
 width="360.000000pt" height="360.000000pt" viewBox="0 0 360.000000 360.000000"
 preserveAspectRatio="xMidYMid meet">

<g transform="translate(0.000000,360.000000) scale(0.100000,-0.100000)"
fill="#000000" stroke="none">
<path d="M0 1800 l0 -1800 647 0 c571 0 645 2 627 15 -10 8 -22 15 -26 15 -4
0 -36 20 -71 44 -35 24 -75 44 -88 44 -56 0 -125 26 -165 61 -22 20 -48 41
-58 46 -11 6 -19 23 -20 41 -1 22 -14 44 -49 78 -26 26 -47 51 -47 56 0 4 12
10 28 13 15 3 52 14 82 25 74 26 180 23 243 -7 30 -14 54 -20 71 -15 l26 6
-24 19 c-59 46 -208 90 -313 92 -61 1 -79 9 -48 21 8 3 12 12 9 20 -4 11 -18
14 -52 11 -43 -4 -45 -3 -19 7 15 7 27 15 27 18 0 4 -18 15 -40 26 -22 10 -40
22 -40 26 0 13 40 29 52 22 8 -5 6 -9 -5 -13 -10 -4 18 -7 60 -8 43 -1 97 -9
120 -17 49 -17 176 -32 153 -18 -8 5 -32 12 -52 16 -22 4 -38 13 -38 20 0 8
-17 16 -40 20 -41 6 -71 19 -103 45 -27 22 -20 31 21 31 20 0 51 4 69 9 38 11
49 3 25 -16 -16 -14 -16 -14 3 -7 19 7 130 22 170 24 16 0 17 2 6 9 -8 5 -20
7 -27 4 -7 -2 -11 3 -11 14 2 16 -5 18 -53 16 l-55 -1 39 14 c22 8 47 12 57 9
17 -6 69 13 69 25 0 4 -27 6 -60 6 -43 -1 -59 2 -56 11 3 7 -11 17 -31 24 -36
12 -37 12 -16 29 21 16 21 17 2 29 -29 18 -13 31 37 31 24 0 44 5 44 10 0 6
-6 10 -14 10 -8 0 -17 6 -19 13 -4 9 -6 8 -6 -2 -1 -9 -5 -10 -13 -4 -7 6 -26
14 -43 18 -27 7 -28 8 -10 15 19 8 19 9 -2 9 -14 1 -25 10 -31 29 -6 15 -11
21 -11 15 -2 -21 -51 -16 -51 5 0 10 -4 22 -9 28 -6 5 18 10 65 11 80 2 116
13 74 23 -14 3 -30 16 -36 29 -6 12 -14 22 -18 22 -43 -5 -62 12 -49 45 4 11
14 13 37 9 29 -6 30 -5 12 10 -11 8 -14 15 -8 15 7 0 12 13 12 30 0 17 4 30 8
30 12 0 45 61 48 87 2 20 0 21 -16 13 -10 -6 -22 -15 -25 -20 -4 -6 -10 -8
-15 -5 -5 3 -31 -13 -57 -37 -49 -44 -44 -30 11 31 22 24 25 30 11 23 -28 -14
-105 -102 -108 -124 -4 -26 -16 -33 -23 -14 -3 9 -1 23 5 30 7 9 8 15 2 18 -5
1 -3 12 6 23 15 20 15 20 9 -2 -4 -13 39 24 102 87 60 60 114 106 118 102 5
-4 1 2 -9 14 -9 11 -14 24 -10 29 5 4 0 5 -9 2 -22 -8 -23 2 -1 33 16 22 16
23 -1 17 -15 -6 -17 -3 -13 14 5 18 2 20 -16 15 -22 -5 -22 -5 -2 11 14 10 16
17 8 20 -7 3 -13 12 -13 20 0 10 6 13 16 9 12 -4 15 -2 10 9 -4 11 2 15 24 15
21 0 30 5 30 16 0 8 -5 12 -10 9 -16 -10 -11 8 10 35 25 32 25 44 1 30 -12 -6
-22 -6 -25 -1 -4 5 15 20 41 32 27 13 55 31 63 41 18 21 72 14 63 -8 -6 -17 1
-18 29 -3 23 12 92 3 83 -12 -4 -5 1 -9 9 -9 9 0 16 -7 16 -16 0 -10 6 -14 15
-10 8 3 15 1 15 -4 0 -6 -4 -10 -8 -10 -5 0 -9 -14 -9 -30 0 -23 4 -29 15 -25
12 5 13 3 2 -10 -7 -9 -9 -15 -4 -14 24 4 23 -4 -5 -40 -33 -41 -37 -51 -21
-51 6 0 10 7 10 15 0 8 7 15 16 15 12 0 8 -10 -15 -39 -34 -43 -41 -63 -13
-39 33 28 42 31 34 8 -4 -12 -11 -20 -15 -18 -8 3 -47 -57 -47 -72 0 -6 7 -10
15 -10 8 0 15 3 15 8 0 9 56 72 65 72 3 0 3 -5 0 -10 -3 -5 0 -10 7 -10 9 0
10 -3 2 -8 -22 -14 -45 -72 -36 -90 5 -9 7 -22 5 -28 -2 -6 3 -14 10 -17 10
-4 16 4 20 28 3 19 21 60 39 92 48 82 51 92 26 90 -12 -1 -29 -14 -38 -30 -12
-19 -20 -25 -25 -17 -4 6 2 22 14 34 12 12 18 26 14 31 -5 4 -3 5 3 2 6 -4 19
2 29 13 10 11 14 20 9 20 -17 0 -56 -32 -76 -64 l-20 -31 6 30 c4 17 23 45 42
63 25 24 33 39 29 53 -9 26 -24 24 -35 -6 -5 -14 -13 -25 -18 -25 -14 0 -10
34 6 53 9 10 16 33 15 52 -1 24 3 32 12 28 11 -4 12 0 2 21 -7 14 -15 26 -19
26 -5 0 -8 9 -8 19 0 26 39 16 49 -12 7 -19 8 -19 15 6 6 27 24 35 41 18 6 -6
21 -1 38 13 l28 23 -58 1 c-78 3 -142 12 -149 23 -3 5 5 9 18 10 20 1 18 3
-11 15 -47 21 -34 26 19 8 64 -23 174 -15 228 16 54 30 82 86 82 163 0 31 -5
59 -10 62 -6 3 -10 15 -10 25 0 12 -15 29 -38 44 -20 13 -44 31 -52 41 -8 10
-42 31 -74 46 l-60 28 89 -6 88 -6 -6 45 c-4 25 -36 108 -72 184 -36 77 -57
128 -47 115 11 -13 36 -62 57 -110 21 -47 49 -108 61 -136 13 -27 24 -59 26
-70 3 -17 10 -19 43 -17 76 6 112 22 166 73 102 95 214 186 237 192 33 8 62
-24 63 -70 2 -66 -2 -97 -16 -126 -13 -26 -13 -28 22 -42 19 -8 40 -15 45 -15
12 0 96 -49 104 -61 3 -5 -7 -4 -21 1 -33 13 -44 13 -25 0 13 -9 13 -12 -2
-24 -10 -7 -15 -16 -12 -19 3 -3 -3 -3 -15 0 -13 3 -21 1 -21 -6 0 -7 -4 -9
-10 -6 -5 3 -10 -2 -10 -12 -1 -17 -2 -16 -16 2 -10 13 -14 36 -12 70 l3 50
-53 -1 c-29 -1 -55 -4 -57 -6 -10 -9 -12 -57 -3 -60 6 -2 3 -10 -6 -17 -14
-12 -16 -11 -16 8 0 15 -6 20 -22 18 -15 -1 -23 5 -29 25 -4 17 -3 28 4 31 7
2 9 8 5 12 -10 10 -62 -12 -85 -37 -10 -11 -18 -37 -19 -61 -2 -67 -13 -89
-38 -81 -18 6 -17 3 7 -19 31 -30 39 -81 10 -70 -10 3 -23 10 -30 15 -7 6 -16
7 -21 4 -4 -3 -32 6 -60 19 -29 13 -52 21 -52 17 0 -8 116 -56 164 -68 15 -3
31 -17 36 -29 5 -12 15 -25 23 -28 13 -5 13 -2 0 24 -8 16 -12 36 -10 44 10
24 45 5 110 -59 77 -77 136 -107 216 -109 45 -2 64 2 80 17 12 11 21 16 21 11
0 -4 15 4 34 19 31 23 33 24 29 6 -3 -11 -9 -22 -13 -25 -7 -4 12 -93 35 -164
5 -16 4 -21 -4 -17 -18 11 -13 -6 7 -20 15 -12 15 -13 1 -14 -11 0 -16 -9 -16
-24 -1 -18 7 -28 28 -35 39 -13 37 -22 -3 -15 l-33 6 30 -17 c16 -9 75 -34
130 -56 102 -41 210 -95 165 -83 -14 4 -45 17 -70 29 -99 49 -259 98 -245 75
3 -6 12 -10 19 -10 7 0 21 -7 32 -16 10 -8 13 -13 7 -9 -19 9 -16 -6 5 -22 22
-18 -4 -6 -40 19 -33 23 -37 23 -31 -1 3 -11 -6 -41 -18 -67 -24 -46 -24 -47
-4 -60 145 -102 238 -187 316 -289 65 -86 77 -107 83 -151 l6 -39 -13 41 c-8
22 -32 65 -54 95 -76 102 -330 326 -358 315 -23 -8 -10 -55 27 -94 60 -65 64
-79 5 -18 -45 46 -57 54 -57 38 0 -11 18 -40 41 -64 22 -23 57 -63 77 -88 21
-25 41 -48 47 -52 5 -4 7 -9 4 -12 -3 -3 -28 17 -57 44 -29 27 -52 48 -52 46
0 -1 11 -30 25 -65 28 -69 45 -181 27 -181 -6 0 -9 7 -6 15 7 16 -9 97 -27
140 -7 17 -14 35 -14 40 -3 21 -55 121 -75 145 -12 14 -19 20 -16 13 7 -14
-13 -63 -26 -63 -5 0 -6 -5 -2 -12 4 -6 8 -32 9 -57 2 -39 6 -47 26 -52 24 -7
24 -7 2 -8 -28 -1 -29 -9 -5 -27 15 -12 14 -13 -12 -14 -25 0 -27 -2 -15 -16
10 -13 10 -17 -2 -25 -11 -7 -11 -9 0 -9 8 0 5 -7 -8 -18 -34 -27 -34 -99 0
-134 14 -16 34 -28 43 -28 10 0 14 -4 11 -10 -3 -5 5 -12 17 -15 16 -4 24 -14
26 -30 1 -14 10 -34 19 -46 31 -39 59 -66 72 -70 19 -7 3 -35 -27 -49 l-27
-12 25 -10 c18 -7 21 -11 11 -17 -7 -5 -10 -14 -7 -20 4 -6 0 -11 -11 -12 -15
0 -14 -2 5 -11 24 -12 30 -28 10 -28 -7 -1 0 -7 17 -14 28 -12 29 -13 10 -24
-19 -11 -19 -11 4 -12 18 0 21 -3 12 -13 -6 -8 -7 -17 -3 -21 4 -4 7 -13 7
-19 0 -7 16 -17 35 -23 l34 -11 -32 -8 c-31 -6 -45 -25 -19 -25 9 0 8 -3 -2
-9 -7 -5 -10 -14 -7 -20 4 -6 1 -11 -6 -12 -7 0 -4 -4 7 -9 18 -7 18 -9 3 -15
-12 -5 -15 -14 -11 -33 3 -15 6 -34 7 -42 0 -8 5 -18 9 -21 5 -3 10 -22 11
-42 2 -20 9 -43 16 -52 7 -8 10 -24 7 -35 -3 -11 -1 -20 5 -20 5 0 6 -5 3 -10
-4 -6 13 -45 37 -87 23 -41 41 -78 40 -81 -12 -18 73 -22 486 -22 l462 0 0
1800 0 1800 -1800 0 -1800 0 0 -1800z m1460 1120 c6 -11 8 -20 6 -20 -3 0 -10
9 -16 20 -6 11 -8 20 -6 20 3 0 10 -9 16 -20z m-683 -47 c17 -8 67 -48 111
-88 44 -41 83 -71 87 -67 5 4 5 2 2 -4 -7 -11 76 -101 149 -160 29 -24 53 -35
85 -37 24 -2 55 -9 69 -14 25 -10 24 -11 -23 -33 -51 -24 -80 -58 -101 -117
-14 -42 -49 -66 -83 -58 -12 3 -23 0 -25 -5 -7 -22 -63 1 -79 33 -16 33 -87
77 -124 77 -11 0 -26 4 -34 9 -10 7 -8 12 10 25 23 16 23 16 2 16 -28 0 -38
15 -11 17 27 2 68 30 68 47 0 15 -89 31 -102 18 -4 -4 -9 -21 -10 -37 -1 -17
-5 -32 -10 -35 -4 -3 -10 -36 -14 -72 -6 -57 -3 -75 15 -118 12 -28 19 -55 16
-60 -3 -5 4 -14 16 -21 l22 -11 -24 -14 c-34 -19 -38 -17 -34 14 2 19 -8 43
-38 82 -22 30 -49 61 -58 67 -24 18 -38 87 -53 260 -12 138 -10 212 8 254 4 8
24 25 44 37 39 22 61 21 119 -5z m722 -17 c-3 -3 -11 5 -18 17 -13 21 -12 21
5 5 10 -10 16 -20 13 -22z m-266 -195 c26 -19 47 -39 47 -42 0 -4 23 -31 50
-60 28 -28 49 -53 46 -56 -4 -5 -85 78 -98 102 -4 6 -33 32 -65 56 -32 23 -62
47 -68 52 -21 20 42 -18 88 -52z m434 -23 c-2 -13 -4 -5 -4 17 -1 22 1 32 4
23 2 -10 2 -28 0 -40z m-26 -21 c-10 -9 -11 -8 -5 6 3 10 9 15 12 12 3 -3 0
-11 -7 -18z m-208 -124 c-7 -2 -21 -2 -30 0 -10 3 -4 5 12 5 17 0 24 -2 18 -5z
m1064 -176 c3 -4 -11 -7 -31 -7 -32 0 -37 -3 -32 -17 4 -13 0 -11 -14 6 -11
13 -20 27 -20 31 0 8 87 -4 97 -13z m-1312 -112 c8 -30 29 -70 45 -89 33 -37
41 -59 13 -33 -10 8 -22 17 -28 19 -5 2 -8 10 -6 18 1 8 0 12 -4 8 -4 -4 -24
1 -45 12 -34 17 -40 18 -80 4 -25 -9 -56 -22 -71 -31 -26 -16 -79 -12 -79 6 0
5 15 15 33 22 37 15 38 16 92 62 44 38 96 67 107 61 4 -2 14 -29 23 -59z
m1272 13 c-3 -8 -6 -5 -6 6 -1 11 2 17 5 13 3 -3 4 -12 1 -19z m-1659 -101 c5
-24 -15 -21 -21 4 -3 13 -1 19 6 16 7 -2 13 -11 15 -20z m162 -33 c0 -3 -4 -3
-9 1 -5 3 -24 -8 -42 -25 -19 -16 -37 -30 -42 -30 -5 0 -15 -7 -23 -15 -9 -8
-20 -15 -25 -15 -5 0 16 25 47 55 47 46 59 53 75 44 10 -5 19 -12 19 -15z
m-313 -26 c-3 -8 -6 -5 -6 6 -1 11 2 17 5 13 3 -3 4 -12 1 -19z m137 -23 c3
-9 0 -15 -9 -15 -8 0 -15 7 -15 15 0 8 4 15 9 15 5 0 11 -7 15 -15z m-94 -71
c0 -18 -5 -36 -11 -40 -8 -4 -9 0 -4 15 3 11 2 29 -4 38 -9 15 -11 11 -12 -22
-2 -33 -3 -35 -6 -11 -3 15 -2 40 2 53 5 20 8 23 20 13 8 -7 15 -27 15 -46z
m678 -6 c-2 -6 -10 -14 -16 -16 -7 -2 -10 2 -6 12 7 18 28 22 22 4z m28 -35
c-2 -9 -8 -19 -14 -21 -14 -4 -15 0 -6 22 8 21 23 20 20 -1z m6 -95 c-6 -6
-16 -7 -22 -3 -9 6 -9 9 1 16 17 10 34 0 21 -13z m-755 -10 c-3 -8 -6 -5 -6 6
-1 11 2 17 5 13 3 -3 4 -12 1 -19z m1953 -165 c0 -7 -35 16 -65 42 -23 20 -18
19 18 -6 26 -18 47 -34 47 -36z m-91 21 c2 -2 -2 -4 -10 -4 -8 0 -25 10 -39
21 l-25 20 35 -17 c19 -9 37 -18 39 -20z m-1783 -71 c10 -50 11 -93 2 -93 -5
0 -8 -12 -8 -26 0 -14 -4 -23 -9 -20 -5 3 -12 -22 -15 -56 -5 -42 -4 -64 3
-66 6 -2 11 -10 11 -18 0 -10 -5 -12 -12 -8 -9 6 -9 3 0 -9 8 -10 11 -25 7
-38 -7 -22 -8 -22 -21 -4 -19 25 -18 15 2 -25 13 -25 15 -47 10 -99 -13 -116
-15 -181 -5 -181 13 0 6 -79 -8 -85 -7 -2 -13 1 -13 7 0 7 -7 3 -15 -8 -8 -11
-15 -14 -15 -6 0 6 -4 12 -10 12 -5 0 -10 -22 -10 -49 0 -62 -10 -112 -21
-105 -5 3 -9 21 -9 40 0 24 -5 34 -15 34 -12 0 -14 -9 -11 -37 2 -21 1 -30 -1
-20 -3 12 -15 17 -44 17 -32 0 -39 -3 -39 -20 0 -11 -4 -20 -10 -20 -5 0 -10
17 -10 38 0 24 -7 45 -17 55 -24 23 -92 67 -103 67 -6 0 -10 36 -10 80 0 64
-3 80 -15 80 -11 0 -15 11 -15 40 0 22 5 40 10 40 6 0 10 18 10 40 0 33 -3 40
-20 40 -17 0 -20 7 -20 45 0 34 5 48 20 57 11 7 20 23 20 36 0 23 2 24 88 22
135 -3 152 -1 152 13 0 21 30 77 41 77 5 0 9 -10 9 -22 0 -35 11 -66 23 -71 9
-3 11 11 9 48 -4 49 -2 53 30 73 29 19 31 22 11 22 -13 0 -23 5 -23 10 0 6 14
10 30 10 28 0 30 2 30 40 0 33 -3 40 -20 40 -13 0 -20 7 -20 20 0 13 7 20 19
20 14 0 21 -10 27 -37z m1624 -161 c0 -5 -7 -17 -15 -28 -14 -18 -14 -17 -4 9
12 27 19 34 19 19z m-1485 -132 c-3 -5 -10 -10 -16 -10 -5 0 -9 5 -9 10 0 6 7
10 16 10 8 0 12 -4 9 -10z m-218 -502 c-3 -7 -5 -2 -5 12 0 14 2 19 5 13 2 -7
2 -19 0 -25z m413 -28 c0 -5 -5 -10 -11 -10 -5 0 -7 5 -4 10 3 6 8 10 11 10 2
0 4 -4 4 -10z"/>
<path d="M651 1424 c0 -11 3 -14 6 -6 3 7 2 16 -1 19 -3 4 -6 -2 -5 -13z"/>
<path d="M682 1420 c0 -14 2 -19 5 -12 2 6 2 18 0 25 -3 6 -5 1 -5 -13z"/>
<path d="M662 1365 c0 -16 2 -22 5 -12 2 9 2 23 0 30 -3 6 -5 -1 -5 -18z"/>
<path d="M1778 2363 c6 -2 18 -2 25 0 6 3 1 5 -13 5 -14 0 -19 -2 -12 -5z"/>
<path d="M1786 2113 c-11 -11 -7 -60 7 -71 6 -5 31 -16 54 -22 34 -11 45 -10
58 0 41 34 -11 73 -63 46 -34 -17 -47 -9 -37 23 6 19 -7 36 -19 24z"/>
<path d="M1977 2056 c-6 -16 2 -28 14 -20 12 7 11 34 0 34 -5 0 -11 -6 -14
-14z"/>
<path d="M2070 2051 c0 -5 7 -12 16 -15 14 -5 15 -4 4 9 -14 17 -20 19 -20 6z"/>
<path d="M2135 2020 c28 -12 47 -12 40 0 -3 6 -18 10 -33 9 -24 0 -25 -1 -7
-9z"/>
<path d="M1942 1960 c0 -14 2 -19 5 -12 2 6 2 18 0 25 -3 6 -5 1 -5 -13z"/>
<path d="M1440 1920 c0 -5 5 -10 11 -10 5 0 7 5 4 10 -3 6 -8 10 -11 10 -2 0
-4 -4 -4 -10z"/>
<path d="M1933 1868 c-26 -33 -24 -38 21 -58 25 -10 46 -23 46 -27 0 -10 55
-73 63 -73 14 0 -11 42 -53 87 -25 26 -50 56 -56 66 -8 15 -12 16 -21 5z"/>
<path d="M1480 1789 c0 -5 5 -7 10 -4 6 3 10 8 10 11 0 2 -4 4 -10 4 -5 0 -10
-5 -10 -11z"/>
<path d="M1475 1760 c-3 -5 1 -10 9 -10 9 0 16 5 16 10 0 6 -4 10 -9 10 -6 0
-13 -4 -16 -10z"/>
<path d="M1490 1709 c0 -5 5 -7 10 -4 6 3 10 8 10 11 0 2 -4 4 -10 4 -5 0 -10
-5 -10 -11z"/>
<path d="M1494 1655 c-41 -60 -80 -140 -76 -157 4 -22 22 -24 22 -3 0 8 7 15
15 15 8 0 15 9 15 20 0 33 15 23 33 -22 10 -24 15 -32 13 -20 -3 13 4 39 15
58 20 36 26 114 9 114 -5 0 -10 -6 -11 -12 -1 -7 -4 -2 -8 12 l-7 24 -20 -29z"/>
<path d="M1577 1642 c-9 -23 -17 -57 -17 -75 1 -30 1 -31 15 -13 13 17 15 18
15 3 0 -9 6 -17 14 -17 8 0 18 -9 21 -20 4 -11 11 -18 16 -15 5 4 2 13 -6 21
-18 18 -20 34 -4 34 6 0 9 9 6 20 -3 11 -2 18 3 15 9 -6 20 19 20 46 0 22 -29
15 -45 -10 -8 -13 -11 -9 -15 19 l-5 35 -18 -43z"/>
<path d="M1690 1665 c0 -5 5 -17 10 -25 5 -8 10 -10 10 -5 0 6 -5 17 -10 25
-5 8 -10 11 -10 5z"/>
<path d="M1097 1134 c-4 -4 3 -16 15 -26 21 -18 23 -18 29 -1 9 25 -26 45 -44
27z"/>
<path d="M2240 1100 c0 -5 7 -10 16 -10 8 0 12 5 9 10 -3 6 -10 10 -16 10 -5
0 -9 -4 -9 -10z"/>
<path d="M1163 1093 c-21 -8 -15 -26 7 -20 11 3 20 2 20 -3 0 -4 12 -5 26 -2
19 3 22 7 13 12 -23 13 -53 18 -66 13z"/>
<path d="M1380 930 c0 -12 8 -12 35 0 18 8 17 9 -7 9 -16 1 -28 -3 -28 -9z"/>
<path d="M1200 600 c0 -5 5 -10 10 -10 6 0 10 5 10 10 0 6 -4 10 -10 10 -5 0
-10 -4 -10 -10z"/>
<path d="M1478 170 c-35 -37 -43 -40 -38 -15 1 5 -8 1 -19 -9 -12 -11 -21 -25
-21 -33 0 -7 -4 -13 -9 -13 -5 0 -13 -9 -16 -21 -4 -11 -9 -18 -12 -15 -3 2
-15 -6 -27 -18 -11 -13 -28 -21 -36 -18 -13 5 -13 3 -1 -12 12 -14 31 -16 118
-15 87 1 102 3 92 15 -9 11 -9 14 0 14 9 0 9 5 1 20 -6 11 -9 24 -6 29 3 5 -1
14 -9 21 -8 7 -15 17 -15 23 0 5 8 3 18 -5 9 -8 25 -18 34 -21 15 -5 16 -2 8
18 -6 16 -6 25 0 25 6 0 10 -5 10 -12 0 -6 3 -8 7 -5 3 4 -1 15 -9 24 -30 36
-33 46 -7 32 13 -6 30 -19 39 -27 13 -14 15 -14 18 2 5 25 -27 56 -57 56 -17
0 -38 -13 -63 -40z"/>
<path d="M1630 61 c0 -7 7 -19 15 -27 19 -20 19 -5 0 20 -9 11 -15 14 -15 7z"/>
<path d="M1600 38 c0 -21 -4 -25 -20 -21 -11 3 -20 0 -20 -6 0 -6 16 -11 35
-11 40 0 40 -1 20 36 l-15 29 0 -27z"/>
</g>
</svg>
